HIERARCHY
ROOT Hips
{
	OFFSET -3.958830 18.904000 13.208200
	CHANNELS 6 Xposition Yposition Zposition Zrotation Yrotation Xrotation 
	JOINT LHipJoint
	{
		OFFSET 0.000000 0.000000 0.000000
		CHANNELS 3 Zrotation Yrotation Xrotation
		JOINT LeftUpLeg
		{
			OFFSET 1.800000 -1.400000 0.085000
			CHANNELS 3 Zrotation Yrotation Xrotation
			JOINT LeftLeg
			{
				OFFSET 2.215000 -6.000000 0.000000
				CHANNELS 3 Zrotation Yrotation Xrotation
				JOINT LeftFoot
				{
					OFFSET 2.500000 -6.900000 0.000000
					CHANNELS 3 Zrotation Yrotation Xrotation
					JOINT LeftToeBase
					{
						OFFSET 0.200000 -0.500000 1.950000
						CHANNELS 3 Zrotation Yrotation Xrotation
						End Site
						{
							OFFSET 0.000000 0.000000 0.000000
						}
					}
				}
			}
		}
	}
	JOINT RHipJoint
	{
		OFFSET 0.000000 0.000000 0.000000
		CHANNELS 3 Zrotation Yrotation Xrotation
		JOINT RightUpLeg
		{
			OFFSET -1.800000 -1.400000 0.085000
			CHANNELS 3 Zrotation Yrotation Xrotation
			JOINT RightLeg
			{
				OFFSET -2.215000 -6.000000 0.000000
				CHANNELS 3 Zrotation Yrotation Xrotation
				JOINT RightFoot
				{
					OFFSET -2.500000 -6.900000 0.000000
					CHANNELS 3 Zrotation Yrotation Xrotation
					JOINT RightToeBase
					{
						OFFSET -0.200000 -0.500000 1.950000
						CHANNELS 3 Zrotation Yrotation Xrotation
						End Site
						{
							OFFSET 0.000000 0.000000 0.000000
						}
					}
				}
			}
		}
	}
	JOINT LowerBack
	{
		OFFSET 0.000000 0.000000 0.000000
		CHANNELS 3 Zrotation Yrotation Xrotation
		JOINT Spine
		{
			OFFSET -0.087000 1.940000 -0.288900
			CHANNELS 3 Zrotation Yrotation Xrotation
			JOINT Spine1
			{
				OFFSET 0.000000 1.950000 0.060000
				CHANNELS 3 Zrotation Yrotation Xrotation
				JOINT Neck
				{
					OFFSET 0.000000 0.000000 0.000000
					CHANNELS 3 Zrotation Yrotation Xrotation
					JOINT Neck1
					{
						OFFSET 0.000000 1.600000 0.340000
						CHANNELS 3 Zrotation Yrotation Xrotation
						JOINT Head
						{
							OFFSET 0.000000 1.667000 -0.240000
							CHANNELS 3 Zrotation Yrotation Xrotation
							End Site
							{
								OFFSET 0.000000 0.000000 0.000000
							}
						}
					}
				}
				JOINT LeftShoulder
				{
					OFFSET 0.000000 0.000000 0.000000
					CHANNELS 3 Zrotation Yrotation Xrotation
					JOINT LeftArm
					{
						OFFSET 2.700000 1.550000 -0.730000
						CHANNELS 3 Zrotation Yrotation Xrotation
						JOINT LeftForeArm
						{
							OFFSET 5.450000 0.000000 0.000000
							CHANNELS 3 Zrotation Yrotation Xrotation
							JOINT LeftHand
							{
								OFFSET 3.450000 0.000000 0.000000
								CHANNELS 3 Zrotation Yrotation Xrotation
								JOINT LeftHandIndex1
								{
									OFFSET 0.750000 0.000000 0.000000
									CHANNELS 3 Zrotation Yrotation Xrotation
									End Site
									{
										OFFSET 0.000000 0.000000 0.000000
									}
								}
							}
						}
					}
				}
				JOINT RightShoulder
				{
					OFFSET 0.000000 0.000000 0.000000
					CHANNELS 3 Zrotation Yrotation Xrotation
					JOINT RightArm
					{
						OFFSET -2.700000 1.550000 -0.730000
						CHANNELS 3 Zrotation Yrotation Xrotation
						JOINT RightForeArm
						{
							OFFSET -5.450000 0.000000 0.000000
							CHANNELS 3 Zrotation Yrotation Xrotation
							JOINT RightHand
							{
								OFFSET -3.450000 0.000000 0.000000
								CHANNELS 3 Zrotation Yrotation Xrotation
								JOINT RightHandIndex1
								{
									OFFSET -0.750000 0.000000 0.000000
									CHANNELS 3 Zrotation Yrotation Xrotation
									End Site
									{
										OFFSET 0.000000 0.000000 0.000000
									}
								}
							}
						}
					}
				}
			}
		}
	}
}
MOTION
Frames: 12
Frame Time: 0.016667
-2.848720 17.402620 -2.701010 -8.787356 -15.397206 -1.144298 -15.042063 12.016868 4.872369 22.719776 0.185976 -33.502674 -14.482853 18.024784 39.493110 0.584800 9.726570 1.094102 -0.255790 -0.371640 -0.387000 18.414198 -10.703332 2.343933 -17.687365 3.796198 -20.654470 9.160419 -6.922677 22.590220 -0.053301 -3.930191 3.079774 -0.280990 0.490250 -0.047670 -3.932391 -0.274803 -8.520522 4.306188 -1.260136 29.994951 -10.856316 1.382244 -6.281989 2.882925 -10.363113 -12.197737 -19.304166 13.236335 31.238168 3.100190 4.750360 -9.723860 -3.647582 6.655579 4.810107 -56.618302 12.413046 -11.451368 -62.586618 -37.298451 15.915160 -3.512099 3.175128 0.469970 0.021570 -0.127770 0.120800 -2.281199 6.165609 6.124425 54.074332 12.174719 -12.127367 -2.943197 59.425510 -3.797723 1.975843 -1.214021 -0.326330 0.435600 0.350210 0.032890 
-2.696550 17.724690 -2.662570 -9.481836 -14.916606 -2.062608 -14.786085 12.293439 4.233853 19.423840 -0.046986 -31.263292 -10.732602 15.042551 37.478984 0.267565 8.570131 1.440865 -0.220200 -0.365150 -0.339790 18.539931 -11.273805 2.458260 -15.368350 2.703045 -16.098372 9.090493 -6.395531 17.945554 -0.081654 -3.736322 3.167743 -0.259400 0.477810 -0.010360 -4.425635 0.357245 -8.174052 8.209239 -1.483622 25.103135 -14.530864 1.694266 -0.674441 3.123580 -10.330297 -12.940700 -19.703849 13.668063 34.088169 2.476940 5.062060 -9.257110 -3.251871 3.119194 5.815943 -57.122279 9.813613 -12.052299 -61.208112 -41.198522 16.808463 -3.529448 3.196301 0.509030 0.032050 -0.115970 0.096020 -3.213923 9.006477 6.775875 58.223943 16.560111 -11.029077 -3.426612 55.851052 -4.888440 1.961662 -1.173498 -0.329360 0.430860 0.375660 -0.002560 
-2.567060 18.039210 -2.651490 -9.349099 -15.579861 -2.453554 -14.659464 12.382347 3.833491 16.471925 0.063107 -30.908756 -7.709969 13.534145 37.332925 0.098369 7.964535 1.634522 -0.192840 -0.337310 -0.317740 18.628200 -11.553685 2.602078 -13.671525 2.356797 -13.988420 9.713234 -6.408674 16.533379 -0.104697 -3.850320 3.133056 -0.205750 0.486090 -0.015180 -4.716124 0.822348 -7.937807 9.566588 -0.269866 20.763482 -16.367028 3.010543 3.261666 3.222573 -10.167488 -13.328911 -19.548809 14.604937 36.457737 2.040160 5.686900 -6.688090 -3.408958 0.315007 6.404815 -56.992325 7.535444 -11.887150 -59.306377 -43.403257 16.907650 -3.568912 3.219821 0.485760 0.065200 -0.144360 0.089170 -3.161081 11.553493 7.187825 59.594717 20.566435 -8.819271 0.844098 55.067879 -3.624203 1.965247 -1.212481 -0.348090 0.433170 0.381590 -0.023020 
-2.445950 18.335810 -2.666960 -9.750468 -15.465358 -4.191799 -14.598964 12.425959 3.595993 14.514880 0.454145 -31.185380 -4.785396 12.888313 39.833681 -0.039855 8.023652 1.564451 -0.120990 -0.285240 -0.221310 18.697871 -11.706701 2.659050 -11.435295 2.194975 -10.648441 10.707881 -7.033087 17.766376 -0.232749 -4.224700 2.976514 -0.131080 0.429480 -0.005470 -4.906779 1.059950 -7.770315 11.074983 0.319396 19.928434 -17.281483 4.146762 6.472717 3.519141 -10.882504 -13.595828 -21.600519 15.749173 38.350737 0.486690 5.884040 -9.908230 -4.466368 -2.869043 6.839515 -56.375011 5.414422 -12.131363 -58.300411 -45.352520 16.845072 -3.586471 3.163087 0.568910 0.034260 -0.105450 0.046560 -2.493701 15.113885 7.201898 57.525142 25.434728 -6.412139 9.024712 54.963381 -0.123505 1.964705 -1.174363 -0.380520 0.473140 0.401020 -0.084030 
-2.323020 18.609300 -2.715850 -8.904221 -15.754026 -6.260961 -14.572496 12.317603 3.588514 11.937837 0.673518 -32.475323 -3.484228 13.725684 44.522791 0.091442 8.677542 1.308812 0.008210 -0.129230 -0.131140 18.740974 -11.776250 2.691143 -10.393894 2.524478 -8.415884 11.906305 -7.902333 20.669505 -0.406255 -4.722553 2.784783 -0.050550 0.339340 0.006770 -5.022168 1.346255 -7.759364 10.996714 1.107700 20.741292 -18.167293 5.567497 8.570224 3.836217 -11.609594 -14.671788 -24.058802 17.762398 40.319013 -0.169600 6.269460 -12.258040 -4.811736 -6.615157 7.975534 -56.277715 4.476557 -13.393951 -57.994076 -48.946424 17.677266 -3.511416 3.197957 0.605150 -0.022710 -0.028420 0.059510 -2.445962 19.747959 7.658342 55.665363 29.731916 -5.675251 12.952481 56.414292 1.329575 1.960416 -1.181781 -0.330020 0.471390 0.344140 -0.093090 
-2.205620 18.839510 -2.735880 -8.535969 -15.259672 -7.953740 -14.554666 12.108958 3.662574 9.665432 0.849983 -34.625775 -2.170669 14.742411 49.756164 0.184379 9.587251 0.942029 0.087180 -0.073190 -0.033330 18.805711 -11.752807 2.749745 -8.601099 2.755716 -5.688800 12.913844 -8.527611 22.144787 -0.569129 -5.108103 2.600002 -0.000410 0.243170 0.037810 -5.168061 1.638209 -7.822866 11.639291 1.707950 21.187757 -19.611024 6.811835 10.121473 4.465932 -11.959133 -15.642894 -26.201785 19.398558 43.491377 -1.572930 6.154920 -14.979860 -5.593870 -9.873696 8.910186 -55.102453 4.331703 -14.363462 -58.771412 -51.577844 18.609976 -3.475730 3.184765 0.698050 -0.083460 0.042160 0.014120 -2.737708 23.497156 7.920032 53.685160 33.740468 -4.797700 18.272999 58.391038 3.909277 1.941683 -1.170726 -0.323590 0.463740 0.353070 -0.144760 
-2.103280 19.068980 -2.761200 -7.317099 -12.111513 -10.698815 -14.579739 11.838570 3.821484 5.950814 -0.159630 -36.938029 -0.858876 15.598811 56.189180 0.273901 10.703304 0.532344 0.166070 -0.034160 0.101090 18.833314 -11.625601 2.822493 -7.972786 2.587822 -0.997996 14.962334 -9.390288 21.892251 -0.784126 -5.572642 2.400373 0.065100 0.137280 0.023190 -5.182690 1.718591 -8.000651 10.151229 1.914926 23.208482 -20.105752 7.601966 12.096861 4.783556 -11.744862 -16.907192 -27.867065 21.020291 48.743603 -2.573900 5.538780 -19.206500 -6.092872 -14.524077 10.095997 -52.505425 3.850493 -15.369340 -60.796543 -54.199099 20.030871 -3.424309 3.065053 0.865520 -0.175860 0.128300 -0.044210 -2.609424 28.142850 8.615315 51.291358 37.396325 -5.961766 19.120702 61.717945 4.311847 1.852223 -1.077050 -0.381250 0.531890 0.370310 -0.233440 
-1.995640 19.227800 -2.821370 -6.822065 -11.404871 -12.193246 -14.577690 11.474338 4.007080 2.838482 -0.275464 -41.024033 1.164279 16.709914 63.340136 0.461139 12.006650 0.082505 0.250420 0.044640 0.192510 18.900732 -11.535600 2.916758 -6.144792 3.178884 1.201668 16.236889 -9.839713 22.809276 -0.921085 -5.922224 2.241140 0.151830 0.070830 0.030870 -5.307562 2.197066 -8.176328 10.393565 3.026526 25.218775 -20.730953 9.439072 13.224842 5.043336 -11.987230 -17.142402 -29.321234 21.502477 50.804488 -4.387440 4.229170 -21.734120 -5.772276 -16.514557 10.000808 -50.267109 1.304440 -14.664088 -66.025979 -57.254931 24.326761 -3.444086 3.060665 0.917440 -0.206030 0.165690 -0.073090 -3.498577 30.814082 8.499216 47.772767 41.878747 -5.832052 21.204790 63.046245 5.853858 1.736897 -1.099627 -0.394280 0.556100 0.368420 -0.277390 
-1.924110 19.343490 -2.863250 -4.105595 -9.435090 -12.417231 -14.729952 11.309335 4.304519 -4.405935 -2.312982 -46.435260 5.700229 15.405573 70.273043 0.671546 12.839904 -0.154371 0.286910 0.086670 0.218060 18.802554 -11.306077 2.913069 -5.206612 3.067429 2.460039 16.466823 -9.545663 21.165950 -0.922443 -5.866585 2.250799 0.194630 0.055530 0.038460 -4.946431 1.972278 -8.348134 5.267238 5.441152 25.723250 -19.775603 11.170269 13.014492 4.826527 -11.481501 -17.277536 -28.512791 21.929454 52.537043 -4.810320 4.349800 -20.993390 -4.716920 -17.517447 9.771782 -48.281767 -0.535854 -13.840099 -70.284663 -58.295710 27.491640 -3.482996 3.106122 0.901940 -0.192220 0.160770 -0.073230 -4.312512 32.178631 8.417049 45.865251 45.322290 -5.271972 23.963595 65.377373 7.824012 1.662203 -1.179605 -0.390800 0.539790 0.358070 -0.290770 
-1.903530 19.384430 -2.897540 -0.142707 -8.031299 -11.206881 -15.039267 11.116955 4.789866 -13.033696 -5.501706 -54.087453 11.575282 12.953253 77.893772 0.890413 13.833187 -0.400882 0.206990 -0.017600 0.190130 18.594953 -10.915469 2.739083 -4.234345 2.570709 2.502838 14.938748 -8.634032 18.549502 -0.767193 -5.486512 2.393805 0.184360 0.132240 0.029440 -4.216771 1.444146 -8.415712 -3.568361 9.469991 23.978455 -17.462303 13.292292 11.683452 4.313536 -10.450886 -16.409610 -24.846909 21.323091 53.484758 -5.344140 5.374340 -18.508690 -3.304961 -16.056055 8.591619 -46.002753 -2.324702 -11.921878 -76.183493 -57.282072 31.124694 -3.630682 3.097923 0.868740 -0.106400 0.077110 -0.104690 -5.039541 31.179561 7.863753 47.084689 49.291617 -1.764517 31.371328 68.862154 12.939888 1.660910 -1.236818 -0.466330 0.553880 0.415430 -0.322660 
-1.861870 19.401600 -2.939820 3.199051 -5.358591 -9.886775 -15.327364 10.936580 5.244539 -23.337412 -9.820438 -61.147523 20.418391 6.389240 84.055965 1.078101 14.423991 -0.539628 0.188170 -0.062070 0.218360 18.428842 -10.478227 2.568372 -2.995449 1.949356 2.407984 13.322799 -7.695008 15.479297 -0.676931 -5.020067 2.539182 0.172300 0.117730 0.030990 -3.582661 0.886435 -8.405118 -11.557469 13.251583 22.628922 -14.568416 14.997940 10.664309 4.239209 -8.859531 -16.068799 -20.555428 19.913919 56.844440 -5.850180 5.892500 -17.970360 -4.046351 -16.028469 7.894676 -42.799958 -2.587815 -10.994002 -83.579162 -54.987438 34.330202 -3.668977 3.098507 0.893840 -0.102430 0.075280 -0.128590 -4.318284 31.368281 7.733563 46.249054 51.532903 0.137868 41.865954 74.308923 21.248306 1.638197 -1.355617 -0.495640 0.540680 0.426940 -0.359910 
-1.824680 19.431060 -2.963840 5.415797 -1.623551 -7.806160 -15.539643 10.682712 5.684619 -32.327236 -14.964333 -67.881317 28.307541 -1.191122 88.256779 1.312375 15.306027 -0.807258 0.170810 -0.115770 0.230710 18.354234 -10.042743 2.433481 -0.917233 0.831734 1.960726 11.181336 -6.716374 11.509332 -0.571912 -4.518075 2.661372 0.157810 0.084940 0.072950 -3.183904 0.433738 -8.425472 -18.031973 16.143224 20.531190 -11.459767 15.725213 10.248097 3.888651 -7.160392 -15.901620 -16.036529 18.692480 60.887974 -5.585340 6.548100 -15.842530 -4.166188 -16.651925 7.695627 -40.588727 -2.387823 -10.425519 -87.338069 -51.040849 33.485445 -3.695114 3.186103 0.893370 -0.091580 0.062680 -0.175070 -3.488897 31.572493 7.640432 45.785538 53.846717 2.108651 47.981606 76.707496 26.536214 1.608696 -1.488087 -0.491180 0.450390 0.461270 -0.395230 
